<?xml version="1.0" encoding="utf-8"?>
<!-- Generator: Adobe Illustrator 16.0.0, SVG Export Plug-In . SVG Version: 6.00 Build 0)  -->
<!DOCTYPE svg PUBLIC "-//W3C//DTD SVG 1.1//EN" "http://www.w3.org/Graphics/SVG/1.1/DTD/svg11.dtd">
<svg version="1.1" id="Layer_1" xmlns="http://www.w3.org/2000/svg" xmlns:xlink="http://www.w3.org/1999/xlink" x="0px" y="0px"
	 width="360px" height="360px" viewBox="0 0 360 360" enable-background="new 0 0 360 360" xml:space="preserve">
<g>
	<g>
		<g>
			<path fill="#EF4123" d="M155.366,247.029c-2.8,0-5.222-1.002-7.199-2.979l-58.438-58.438c-1.921-1.921-2.979-4.477-2.979-7.199
				c0-2.722,1.058-5.278,2.979-7.198c1.92-1.921,4.477-2.979,7.199-2.979s5.278,1.058,7.199,2.978l50.478,50.479L293.95,54.792
				c1.956-2.215,4.857-3.515,7.915-3.515c2.399,0,4.711,0.815,6.51,2.296c4.146,3.661,4.716,10.152,1.205,14.415L163.34,243.29
				c-1.868,2.1-4.537,3.445-7.475,3.739H155.366z"/>
			<path fill="#FFFFFF" d="M301.865,53.776c1.792,0,3.513,0.594,4.854,1.673c3.154,2.843,3.576,7.735,0.95,10.924L161.477,241.621
				c-1.452,1.605-3.532,2.657-5.745,2.908h-0.367c-2.113,0-3.94-0.756-5.431-2.246l-58.438-58.439
				c-1.448-1.447-2.246-3.376-2.246-5.43c0-2.054,0.798-3.982,2.247-5.431c1.448-1.448,3.377-2.246,5.431-2.246
				c2.054,0,3.983,0.798,5.431,2.246l48.544,48.544l3.868,3.868l3.506-4.199L295.82,56.453
				C297.345,54.751,299.545,53.776,301.865,53.776 M301.865,48.776c-3.621,0-7.254,1.488-9.834,4.413L154.438,217.992
				l-48.544-48.545c-2.474-2.474-5.72-3.71-8.967-3.71s-6.493,1.237-8.966,3.71c-4.948,4.947-4.948,12.986,0,17.933l58.438,58.438
				c2.474,2.474,5.565,3.711,8.966,3.711c0.31,0,0.31,0,0.619,0c3.401-0.31,6.802-1.855,9.276-4.638L311.51,69.577
				c4.329-5.256,3.711-13.295-1.546-17.934C307.633,49.723,304.752,48.776,301.865,48.776L301.865,48.776z"/>
		</g>
		<g>
			<path fill="#666666" d="M179.792,357.104c-47.185,0-91.578-18.407-125.003-51.832C21.465,271.947,3.113,227.499,3.113,180.114
				c0-47.384,18.353-91.833,51.676-125.157C88.361,21.385,132.726,2.896,179.712,2.896c33.012,0,65.404,9.356,93.677,27.058
				c4.722,2.982,6.176,9.203,3.233,13.861c-1.888,2.987-5.101,4.771-8.596,4.771l0,0c-1.863,0-3.686-0.529-5.271-1.53
				C237.68,31.479,209.011,23.25,179.834,23.25c-41.64,0-81.043,16.372-110.951,46.101c-29.489,29.488-45.726,68.823-45.726,110.765
				c0,41.941,16.237,81.276,45.721,110.759c29.483,29.483,68.818,45.721,110.76,45.721c41.941,0,81.276-16.237,110.758-45.721
				c52.185-52.183,61.228-132.035,21.991-194.186c-2.942-4.659-1.488-10.879,3.24-13.867c1.585-1.001,3.408-1.53,5.271-1.53
				c3.495,0,6.709,1.784,8.595,4.771c44.283,70.242,34.127,160.385-24.698,219.209C271.371,338.696,226.978,357.104,179.792,357.104
				z"/>
			<path fill="#FFFFFF" d="M179.712,5.396c32.542,0,64.476,9.225,92.334,26.666c3.563,2.251,4.669,6.925,2.462,10.418
				c-1.426,2.258-3.85,3.606-6.481,3.606c-1.39,0-2.75-0.396-3.967-1.164c-25.457-15.814-54.582-24.173-84.225-24.173
				c-42.305,0-82.333,16.63-112.724,46.838c-15.136,15.136-26.858,32.831-34.842,52.593c-7.704,19.072-11.611,39.237-11.611,59.934
				s3.907,40.861,11.611,59.934c7.983,19.762,19.706,37.457,34.842,52.593c15.136,15.137,32.831,26.859,52.593,34.842
				c19.073,7.705,39.238,11.611,59.935,11.611s40.862-3.906,59.934-11.611c19.762-7.982,37.457-19.705,52.592-34.842
				c53.017-53.015,62.201-134.143,22.337-197.289c-2.206-3.493-1.102-8.167,2.462-10.417c1.186-0.749,2.547-1.144,3.936-1.144
				c2.634,0,5.057,1.348,6.48,3.603c43.656,69.249,33.643,158.117-24.351,216.11c-16.61,16.61-36.015,29.491-57.674,38.287
				c-20.936,8.502-42.993,12.812-65.562,12.812c-22.568,0-44.627-4.311-65.562-12.812c-21.659-8.796-41.063-21.677-57.673-38.287
				c-16.6-16.601-29.455-35.998-38.207-57.655c-8.452-20.916-12.738-43.032-12.738-65.734s4.286-44.818,12.738-65.734
				c8.752-21.658,21.606-41.056,38.207-57.655c16.625-16.625,35.946-29.527,57.428-38.35C134.954,9.763,157.068,5.396,179.712,5.396
				 M179.712,0.396c-46.198,0-91.909,18.012-126.69,52.793c-69.878,69.878-69.878,183.972,0,253.85
				c34.94,34.939,81.01,52.564,126.771,52.564s91.832-17.625,126.771-52.564c59.675-59.674,69.878-151.197,25.045-222.312
				c-2.41-3.816-6.517-5.936-10.709-5.936c-2.262,0-4.548,0.617-6.606,1.917c-5.874,3.711-7.729,11.44-4.02,17.315
				c38.649,61.221,29.684,139.757-21.645,191.084c-29.991,29.992-69.491,44.988-108.991,44.988c-39.5,0-79-14.996-108.992-44.988
				c-59.984-59.984-59.984-158,0-217.983c30.096-29.915,69.446-45.374,109.188-45.374c28.036,0,56.263,7.689,81.586,23.42
				c2.058,1.3,4.345,1.917,6.605,1.917c4.192,0,8.298-2.12,10.709-5.936c3.711-5.875,1.854-13.605-4.02-17.315
				C245.266,9.396,212.366,0.396,179.712,0.396L179.712,0.396z"/>
		</g>
	</g>
</g>
</svg>
