<?xml version="1.0" encoding="utf-8"?>
<!-- Generator: Adobe Illustrator 16.0.0, SVG Export Plug-In . SVG Version: 6.00 Build 0)  -->
<!DOCTYPE svg PUBLIC "-//W3C//DTD SVG 1.1//EN" "http://www.w3.org/Graphics/SVG/1.1/DTD/svg11.dtd">
<svg version="1.1" id="Layer_3" xmlns="http://www.w3.org/2000/svg" xmlns:xlink="http://www.w3.org/1999/xlink" x="0px" y="0px"
	 width="360px" height="360px" viewBox="0 0 360 360" enable-background="new 0 0 360 360" xml:space="preserve">
<g>
	<path fill="#666666" d="M180,354.5C83.81,354.5,5.5,276.189,5.5,180C5.5,83.811,83.81,5.5,180,5.5
		c96.189,0,174.5,78.311,174.5,174.5C354.5,276.189,276.189,354.5,180,354.5z M180.014,16.237
		C89.502,16.237,15.866,89.488,15.866,180s73.637,163.764,163.763,163.764c90.512,0,164.148-73.636,164.148-163.764
		C343.777,89.488,270.523,16.237,180.014,16.237z"/>
	<path fill="#EF4123" d="M271.995,194.371h-97.316c-3.111,0-5.632-2.521-5.632-5.631V86.579c0-3.11,2.521-5.632,5.632-5.632
		s5.633,2.522,5.633,5.632v96.529h91.684c3.11,0,5.631,2.521,5.631,5.632C277.626,191.851,275.105,194.371,271.995,194.371z"/>
</g>
</svg>
