<?xml version="1.0" encoding="utf-8"?>
<!-- Generator: Adobe Illustrator 16.0.0, SVG Export Plug-In . SVG Version: 6.00 Build 0)  -->
<!DOCTYPE svg PUBLIC "-//W3C//DTD SVG 1.1//EN" "http://www.w3.org/Graphics/SVG/1.1/DTD/svg11.dtd">
<svg version="1.1" id="Layer_1" xmlns="http://www.w3.org/2000/svg" xmlns:xlink="http://www.w3.org/1999/xlink" x="0px" y="0px"
	 width="72px" height="72px" viewBox="0 0 72 72" enable-background="new 0 0 72 72" xml:space="preserve">
<path fill="#666766" stroke="#FFFFFF" stroke-width="2" stroke-miterlimit="10" d="M61.639,30.145l-0.031,0.029
	c0.12-1.083,0.19-2.176,0.151-3.279C61.319,14.322,50.737,4.456,38.168,4.893C25.599,5.332,15.73,15.914,16.169,28.486
	c0.113,3.296,0.942,6.503,2.415,9.426l-0.186,0.006c-0.351,0.013-0.693,0.119-0.986,0.317l-9.219,6.142l-7.371,3.851
	c-0.454,0.235-0.79,0.644-0.94,1.133c-0.148,0.484-0.095,1.013,0.15,1.458L8.161,65.75c0.355,0.655,1.04,1.017,1.736,0.992
	c0.266-0.009,0.532-0.074,0.784-0.2l7.309-3.663l9.021-2.441l24.479-0.854c0.531-0.019,1.033-0.26,1.379-0.666l17.734-20.756
	c1.988-2.328,1.795-5.785-0.447-7.874L69.7,29.86C67.476,27.785,63.72,27.917,61.639,30.145z M4.296,50.698l4.096-2.141
	l6.315,11.717L10.62,62.32L4.296,50.698z M19.071,41.698l2.856-0.102l3.97-0.138l7.435,1.586c0.155,0.031,0.307,0.045,0.464,0.041
	l8.548-0.299c0.343-0.013,0.675,0.045,0.984,0.15c0.019,0.004,0.039,0.009,0.056,0.017c0.312,0.107,0.603,0.272,0.854,0.482
	c0.004,0.002,0.007,0.007,0.011,0.007c0.516,0.431,0.878,1.047,0.987,1.761c0,0,0.002,0,0.005,0.004l0.051,0.332
	c0.007,0.146-0.012,0.287-0.03,0.428c0,0.004-0.002,0.006-0.002,0.008c-0.021,0.157-0.056,0.308-0.102,0.458l0,0c0,0,0,0,0,0.002
	c-0.004,0.015,0,0.031-0.002,0.048c-0.297,0.942-1.062,1.687-2.042,1.924c-0.184,0.045-0.375,0.07-0.571,0.078l-10.448,0.365
	l0.134,3.801l10.448-0.365c0.438-0.017,0.862-0.08,1.275-0.179c0.136-0.031,0.264-0.087,0.396-0.128
	c0.269-0.079,0.536-0.159,0.788-0.272c0.15-0.066,0.284-0.152,0.429-0.229c0.221-0.118,0.439-0.235,0.644-0.378
	c0.143-0.097,0.269-0.206,0.402-0.315c0.186-0.15,0.365-0.301,0.534-0.473c0.124-0.121,0.235-0.251,0.349-0.384
	c0.152-0.179,0.293-0.362,0.429-0.559c0.099-0.145,0.189-0.288,0.278-0.441c0.117-0.204,0.221-0.416,0.315-0.637
	c0.07-0.159,0.139-0.318,0.198-0.485c0.082-0.229,0.141-0.468,0.193-0.709c0.038-0.167,0.083-0.332,0.107-0.508
	c0.009-0.062,0.029-0.117,0.037-0.184l0.445-0.101c0.318-0.078,0.615-0.235,0.856-0.46l9.076-8.456c0.002,0,0.002,0,0.002,0
	l4.895-4.558c0.883-0.934,2.04-0.883,2.78-0.19l0.458,0.425c0.744,0.695,0.811,1.848,0.148,2.622L50.521,55.813l-23.86,0.833
	c-0.144,0.006-0.289,0.026-0.429,0.063l-7.963,2.155l-6.598-12.238L19.071,41.698z M50.513,40.502l-2.197,2.046
	c-0.043-0.08-0.097-0.15-0.14-0.229c-0.2-0.343-0.423-0.662-0.677-0.962c-0.113-0.136-0.229-0.273-0.354-0.401
	c-0.132-0.126-0.264-0.246-0.402-0.365c-0.167-0.143-0.34-0.272-0.52-0.398c-0.12-0.089-0.235-0.175-0.361-0.253
	c-0.305-0.182-0.625-0.343-0.957-0.475c-0.104-0.041-0.212-0.072-0.317-0.107c-0.272-0.093-0.549-0.171-0.833-0.227
	c-0.115-0.025-0.231-0.05-0.349-0.066c-0.392-0.056-0.786-0.093-1.192-0.078l-8.315,0.291l-7.435-1.586
	c-0.153-0.031-0.31-0.046-0.466-0.04l-3.143,0.109c-1.773-2.829-2.768-6.061-2.885-9.406C19.604,17.88,27.824,9.061,38.301,8.694
	c10.473-0.365,19.294,7.858,19.659,18.333c0.095,2.71-0.382,5.352-1.415,7.858L50.513,40.502z"/>
<g>
	<path fill="#EF4223" d="M37.395,26.46h-5.876l9.85,10.426l1.095-1.153l-7.373-7.718h2.361c2.361-0.058,4.32-1.901,4.666-4.32h3.341
		v-1.555h-3.341c-0.173-1.037-0.576-2.016-1.268-2.765h4.608v-1.555H32.21v1.555h5.185c1.555,0,2.879,1.152,3.225,2.765H32.21v1.555
		h8.409C40.273,25.251,38.949,26.46,37.395,26.46z"/>
</g>
</svg>
