<?xml version="1.0" encoding="utf-8"?>
<!-- Generator: Adobe Illustrator 19.1.0, SVG Export Plug-In . SVG Version: 6.00 Build 0)  -->
<svg version="1.1" id="Layer_1" xmlns="http://www.w3.org/2000/svg" xmlns:xlink="http://www.w3.org/1999/xlink" x="0px" y="0px" width="40" height="40"
	 viewBox="278.5 691.6 285.7 282.6" style="enable-background:new 278.5 691.6 285.7 282.6;" xml:space="preserve">
<style type="text/css">
	.st0{fill:#EF4123;}
	.st1{fill:#333333;}
</style>
<g>
	<path class="st0" d="M342.3,822.8c35.2,0,63.8-28.6,63.8-63.8c0-35.2-28.6-63.8-63.8-63.8c-35.2,0-63.8,28.6-63.8,63.8
		C278.5,794.2,307.1,822.8,342.3,822.8z M303.8,720.4c10-10,23.8-16.2,38.6-16.2c15.2,0,28.6,6.2,38.6,16.2
		c10,10,16.2,23.8,16.2,38.6c0,15.2-6.2,28.6-16.2,38.6c-10,10-23.8,16.2-38.6,16.2c-15.2,0-28.6-6.2-38.6-16.2
		c-10-10-16.2-23.8-16.2-38.6C287.6,743.7,293.8,730.4,303.8,720.4z"/>
	<path class="st0" d="M500.4,831.8c-35.2,0-63.8,28.6-63.8,63.8c0,35.2,28.6,63.8,63.8,63.8c35.2,0,63.8-28.6,63.8-63.8
		C564.3,860.4,535.7,831.8,500.4,831.8z M539,934.7c-10,10-23.8,16.2-38.6,16.2c-15.2,0-28.6-6.2-38.6-16.2
		c-10-10-16.2-23.8-16.2-38.6c0-15.2,6.2-28.6,16.2-38.6c10-10,23.8-16.2,38.6-16.2c15.2,0,28.6,6.2,38.6,16.2
		c10,10,16.2,23.8,16.2,38.6C555.2,910.9,549,924.7,539,934.7z"/>
	
		<rect x="227.8" y="828.4" transform="matrix(-0.6598 0.7514 -0.7514 -0.6598 1309.39 1072.9897)" class="st1" width="368.1" height="9"/>
</g>
<g>
	<path class="st0" d="M342.3,822.8c35.2,0,63.8-28.6,63.8-63.8c0-35.2-28.6-63.8-63.8-63.8c-35.2,0-63.8,28.6-63.8,63.8
		C278.5,794.2,307.1,822.8,342.3,822.8z M303.8,720.4c10-10,23.8-16.2,38.6-16.2c15.2,0,28.6,6.2,38.6,16.2
		c10,10,16.2,23.8,16.2,38.6c0,15.2-6.2,28.6-16.2,38.6c-10,10-23.8,16.2-38.6,16.2c-15.2,0-28.6-6.2-38.6-16.2
		c-10-10-16.2-23.8-16.2-38.6C287.6,743.7,293.8,730.4,303.8,720.4z"/>
	<path class="st0" d="M500.4,831.8c-35.2,0-63.8,28.6-63.8,63.8c0,35.2,28.6,63.8,63.8,63.8c35.2,0,63.8-28.6,63.8-63.8
		C564.3,860.4,535.7,831.8,500.4,831.8z M539,934.7c-10,10-23.8,16.2-38.6,16.2c-15.2,0-28.6-6.2-38.6-16.2
		c-10-10-16.2-23.8-16.2-38.6c0-15.2,6.2-28.6,16.2-38.6c10-10,23.8-16.2,38.6-16.2c15.2,0,28.6,6.2,38.6,16.2
		c10,10,16.2,23.8,16.2,38.6C555.2,910.9,549,924.7,539,934.7z"/>
	
		<rect x="227.8" y="828.4" transform="matrix(-0.6598 0.7514 -0.7514 -0.6598 1309.39 1072.9897)" class="st1" width="368.1" height="9"/>
</g>
</svg>
