<?xml version="1.0" encoding="utf-8"?>
<!-- Generator: Adobe Illustrator 16.0.0, SVG Export Plug-In . SVG Version: 6.00 Build 0)  -->
<!DOCTYPE svg PUBLIC "-//W3C//DTD SVG 1.1//EN" "http://www.w3.org/Graphics/SVG/1.1/DTD/svg11.dtd">
<svg version="1.1" id="Layer_1" xmlns="http://www.w3.org/2000/svg" xmlns:xlink="http://www.w3.org/1999/xlink" x="0px" y="0px"
	 width="360px" height="360px" viewBox="0 0 360 360" enable-background="new 0 0 360 360" xml:space="preserve">
<g>
	<g>
		<g>
			<path fill="#EF4123" d="M246.592,248.868c-1.255,0-2.453-0.378-3.467-1.094c-2.129-1.542-4.296-3.036-6.429-4.433
				c-14.108-9.43-26.117-15.577-30.624-17.783c-2.61-1.272-4.296-3.975-4.296-6.885v-35.266c0-2.044,0.994-3.903,2.659-4.973
				c2.939-1.933,4.688-5.18,4.688-8.693v-36.587c0-14.828-12.063-26.891-26.891-26.891h-7.861
				c-14.828,0-26.891,12.063-26.891,26.891v36.587c0,3.514,1.749,6.761,4.678,8.686c1.644,1.096,2.669,3.005,2.669,4.98v35.266
				c0,2.91-1.686,5.612-4.294,6.884c-2.874,1.387-18.123,8.932-35.725,21.184c-1.038,0.738-2.243,1.125-3.495,1.125c0,0,0,0,0,0
				c-1.97-0.001-3.833-0.968-4.985-2.587c-1.884-2.735-1.203-6.504,1.527-8.385c10.542-7.347,22.357-14.456,34.175-20.563
				l0.676-0.35v-29.576l-0.38-0.369c-4.427-4.286-6.966-10.225-6.966-16.293v-36.587c0-21.471,17.467-38.938,38.938-38.938h7.861
				c21.471,0,38.938,17.467,38.938,38.938v36.587c0,6.138-2.537,12.075-6.96,16.287l-0.388,0.369v29.586l0.68,0.349
				c5.424,2.781,16.392,8.686,28.9,16.975c2.647,1.765,4.785,3.229,6.726,4.606c1.333,0.947,2.22,2.335,2.496,3.908
				c0.276,1.572-0.088,3.166-1.027,4.486C250.395,247.913,248.552,248.868,246.592,248.868z"/>
			<path fill="#FFFFFF" d="M182.159,95.467c20.781,0,37.688,16.907,37.688,37.688v36.587c0,5.798-2.396,11.404-6.571,15.381
				l-0.776,0.739v1.071v28.286v1.527l1.359,0.697c5.401,2.77,16.322,8.648,28.774,16.9c2.641,1.76,4.769,3.217,6.697,4.587
				c1.063,0.756,1.771,1.859,1.989,3.105c0.219,1.241-0.07,2.5-0.821,3.556c-0.88,1.249-2.377,2.024-3.907,2.024
				c-0.995,0-1.944-0.299-2.722-0.847c-2.156-1.562-4.34-3.067-6.469-4.462c-14.182-9.479-26.25-15.657-30.783-17.875
				c-2.148-1.048-3.592-3.362-3.592-5.761v-35.266c0-1.616,0.779-3.082,2.106-3.936c3.281-2.157,5.24-5.794,5.24-9.73v-36.587
				c0-15.517-12.624-28.141-28.141-28.141h-7.861c-15.517,0-28.141,12.624-28.141,28.141v36.587c0,3.936,1.959,7.573,5.228,9.721
				c1.308,0.872,2.12,2.383,2.12,3.944v35.266c0,2.398-1.443,4.713-3.582,5.756c-2.893,1.396-18.221,8.979-35.922,21.301
				c-0.815,0.579-1.77,0.886-2.76,0.886c-1.566,0-3.048-0.771-3.944-2.03c-1.504-2.184-0.967-5.172,1.208-6.67
				c10.492-7.312,22.258-14.393,34.028-20.475l1.352-0.698v-1.522v-28.286v-1.06l-0.761-0.736
				c-4.186-4.053-6.586-9.664-6.586-15.396v-36.587c0-20.781,16.907-37.688,37.688-37.688H182.159 M182.159,92.967h-7.861
				c-22.188,0-40.188,18-40.188,40.188v36.587c0,6.539,2.718,12.71,7.347,17.192v28.286c-6.539,3.379-19.763,10.506-34.31,20.645
				c-3.306,2.277-4.114,6.832-1.837,10.139c1.439,2.024,3.705,3.112,6.003,3.112c1.457,0,2.927-0.437,4.209-1.349
				c16.678-11.608,31.445-19.102,35.559-21.086c3.012-1.469,4.996-4.629,4.996-8.008v-35.266c0-2.424-1.249-4.702-3.233-6.024
				c-2.571-1.69-4.114-4.555-4.114-7.641v-36.587c0-14.18,11.535-25.641,25.641-25.641h7.861c14.18,0,25.641,11.535,25.641,25.641
				v36.587c0,3.086-1.543,5.951-4.113,7.641c-2.058,1.322-3.233,3.601-3.233,6.024v35.266c0,3.379,1.983,6.539,4.996,8.008
				c3.453,1.689,15.869,7.935,30.489,17.706c2.131,1.396,4.262,2.865,6.393,4.408c1.249,0.882,2.719,1.322,4.188,1.322
				c2.277,0,4.555-1.103,5.951-3.085c2.352-3.307,1.543-7.788-1.764-10.139c-2.277-1.617-4.555-3.16-6.759-4.629
				c-12.417-8.229-23.29-14.106-29.021-17.045v-28.286c4.629-4.408,7.348-10.653,7.348-17.192v-36.587
				C222.348,110.967,204.348,92.967,182.159,92.967L182.159,92.967z"/>
		</g>
		<g>
			<path fill="#666666" d="M179,357.75c-3.377,0-6.023-2.646-6.023-6.023V318.72l-1.193-0.055
				c-34.646-1.584-67.339-16.008-92.059-40.614c-24.711-24.598-39.291-57.215-41.052-91.841l-0.061-1.187H6.273
				c-3.377,0-6.023-2.646-6.023-6.023c0-3.377,2.646-6.023,6.023-6.023h32.339l0.061-1.187
				c1.762-34.635,16.331-67.251,41.024-91.841c24.71-24.606,57.414-39.03,92.086-40.614l1.193-0.054V6.273
				c0-3.377,2.646-6.023,6.023-6.023c3.378,0,6.023,2.646,6.023,6.023v33.067l1.18,0.066c34.38,1.938,66.751,16.504,91.149,41.016
				c24.407,24.52,38.818,56.968,40.579,91.368l0.061,1.186h33.734c3.378,0,6.023,2.646,6.023,6.023c0,3.378-2.646,6.023-6.023,6.023
				h-33.734l-0.061,1.187c-1.761,34.399-16.172,66.848-40.579,91.367c-24.398,24.512-56.77,39.078-91.149,41.016l-1.18,0.066v33.067
				C185.023,355.104,182.378,357.75,179,357.75z M178.265,51.236c-33.543,0-65.249,12.961-89.276,36.495
				c-23.981,23.489-37.623,54.848-38.414,88.301l-0.007,0.31l0.139,0.278c0.346,0.693,0.529,1.517,0.529,2.38
				c0,0.73-0.19,1.558-0.565,2.459l-0.102,0.244l0.006,0.265c0.754,33.445,14.387,64.805,38.386,88.302
				c24.037,23.533,55.752,36.494,89.304,36.494c70.45,0,127.764-57.314,127.764-127.764S248.715,51.236,178.265,51.236z"/>
			<path fill="#FFFFFF" d="M179,1.5c2.677,0,4.773,2.097,4.773,4.773v31.886v2.363l2.359,0.133
				c34.071,1.92,66.153,16.356,90.334,40.649c24.189,24.301,38.472,56.458,40.216,90.55l0.122,2.372h2.375h32.547
				c2.677,0,4.773,2.097,4.773,4.773s-2.097,4.773-4.773,4.773H319.18h-2.375l-0.122,2.372
				c-1.744,34.091-16.026,66.249-40.216,90.55c-24.181,24.293-56.263,38.729-90.334,40.649l-2.359,0.133v2.363v31.886
				c0,2.677-2.097,4.773-4.773,4.773s-4.773-2.097-4.773-4.773v-31.812v-2.389l-2.386-0.108
				c-34.334-1.57-66.735-15.865-91.234-40.252c-24.491-24.379-38.94-56.703-40.686-91.019l-0.121-2.373h-2.376H6.273
				c-2.677,0-4.773-2.097-4.773-4.773s2.097-4.773,4.773-4.773h31.151H39.8l0.121-2.373c1.746-34.324,16.186-66.649,40.659-91.019
				c24.49-24.387,56.9-38.682,91.261-40.251l2.386-0.109v-2.389V6.273C174.227,3.597,176.323,1.5,179,1.5 M178.265,308.014
				c71.138,0,129.014-57.875,129.014-129.014S249.403,49.986,178.265,49.986c-33.873,0-65.889,13.087-90.151,36.852
				c-24.215,23.718-37.99,55.384-38.789,89.165l-0.015,0.621l0.278,0.556c0.256,0.513,0.397,1.16,0.397,1.822
				c0,0.557-0.162,1.241-0.469,1.979l-0.203,0.488l0.012,0.528c0.762,33.773,14.527,65.44,38.762,89.167
				C112.358,294.927,144.385,308.014,178.265,308.014 M179-1c-4.041,0-7.273,3.232-7.273,7.273v31.812
				C99.359,41.392,41.098,99.506,37.424,171.727H6.273C2.232,171.727-1,174.959-1,179s3.232,7.273,7.273,7.273h31.151
				c3.674,72.221,62.008,130.335,134.302,133.641v31.812c0,4.041,3.232,7.273,7.273,7.273s7.273-3.232,7.273-7.273v-31.886
				c71.706-4.041,129.232-61.788,132.906-133.567h32.547c4.041,0,7.273-3.232,7.273-7.273s-3.232-7.273-7.273-7.273H319.18
				c-3.674-71.78-61.2-129.526-132.906-133.567V6.273C186.273,2.232,183.041-1,179-1L179-1z M178.265,305.514
				c-68.767,0-124.898-55.175-126.44-123.574c0.367-0.883,0.661-1.911,0.661-2.939s-0.221-2.057-0.661-2.939
				c1.616-68.4,57.673-123.575,126.44-123.575c69.795,0,126.514,56.792,126.514,126.514
				C304.779,248.796,247.988,305.514,178.265,305.514L178.265,305.514z"/>
		</g>
	</g>
</g>
</svg>
