<?xml version="1.0" encoding="utf-8"?>
<!-- Generator: Adobe Illustrator 16.0.0, SVG Export Plug-In . SVG Version: 6.00 Build 0)  -->
<!DOCTYPE svg PUBLIC "-//W3C//DTD SVG 1.1//EN" "http://www.w3.org/Graphics/SVG/1.1/DTD/svg11.dtd">
<svg version="1.1" id="Layer_1" xmlns="http://www.w3.org/2000/svg" xmlns:xlink="http://www.w3.org/1999/xlink" x="0px" y="0px"
	 width="72px" height="72px" viewBox="0 0 72 72" enable-background="new 0 0 72 72" xml:space="preserve">
<g>
	<path fill="#666666" stroke="#FFFFFF" stroke-width="0.3" stroke-miterlimit="10" d="M72.197,61.755v-0.776H61.231V8.584
		c0-3.877-3.103-7.09-6.979-7.09H7.507l0,0c-0.221,0-0.443,0-0.665,0c-3.988,0-7.089,3.213-7.089,7.09v28.579l12.628,0.332v25.92
		c0,3.989,3.212,7.09,7.089,7.09l0,0h46.524c3.545,0,6.203-2.878,6.203-6.535C72.31,63.306,72.197,61.755,72.197,61.755z
		 M12.381,35.723L1.415,35.501V8.473c0-2.991,2.437-5.427,5.428-5.427s5.427,2.437,5.427,5.427v27.25H12.381z M19.47,68.845
		c-2.991,0-5.428-2.437-5.428-5.43V8.473c0-2.216-0.997-4.209-2.547-5.539h42.648c2.99,0,5.428,2.437,5.428,5.428v52.397H25.784
		l-1.218,0.22l0.222,0.887c0.111,0.444,0.222,0.998,0.222,1.44C25.009,66.408,22.461,68.845,19.47,68.845z M66.105,68.845H24.012
		c1.55-1.33,2.548-3.322,2.548-5.539c0-0.223,0-0.555-0.111-0.774h43.978c0,0.442,0,1.106,0,1.328
		C70.646,66.851,68.653,68.845,66.105,68.845z"/>
	
		<rect x="32.984" y="11.575" fill="#666666" stroke="#FFFFFF" stroke-width="0.3" stroke-miterlimit="10" width="22.376" height="1.661"/>
	
		<rect x="32.984" y="16.892" fill="#666666" stroke="#FFFFFF" stroke-width="0.3" stroke-miterlimit="10" width="16.284" height="1.66"/>
	
		<rect x="32.984" y="22.319" fill="#666666" stroke="#FFFFFF" stroke-width="0.3" stroke-miterlimit="10" width="13.846" height="1.662"/>
	<polygon fill="#666666" stroke="#FFFFFF" stroke-width="0.3" stroke-miterlimit="10" points="55.692,53.446 51.151,53.446 
		51.151,34.726 49.489,34.726 49.489,53.446 44.394,53.446 44.394,41.483 42.733,41.483 42.733,53.446 37.637,53.446 37.637,37.938 
		35.975,37.938 35.975,53.446 30.88,53.446 30.88,36.498 29.218,36.498 29.218,53.446 24.233,53.446 24.233,43.256 22.571,43.256 
		22.571,53.446 18.03,53.446 18.03,55.109 55.692,55.109 	"/>
	<g>
		<path fill="#EF4123" stroke="#FFFFFF" stroke-width="0.3" stroke-miterlimit="10" d="M22.614,18.772h-4.917l8.243,8.725
			l0.916-0.964l-6.17-6.458h1.977c1.976-0.048,3.615-1.591,3.905-3.616h2.795v-1.301h-2.795c-0.145-0.868-0.482-1.688-1.061-2.314
			h3.856v-1.301H18.275v1.301h4.338c1.301,0,2.41,0.964,2.699,2.314h-7.037v1.301h7.037C25.023,17.76,23.915,18.772,22.614,18.772z"
			/>
	</g>
</g>
</svg>
