<?xml version="1.0" encoding="utf-8"?>
<!-- Generator: Adobe Illustrator 16.0.0, SVG Export Plug-In . SVG Version: 6.00 Build 0)  -->
<!DOCTYPE svg PUBLIC "-//W3C//DTD SVG 1.1//EN" "http://www.w3.org/Graphics/SVG/1.1/DTD/svg11.dtd">
<svg version="1.1" id="Layer_1" xmlns="http://www.w3.org/2000/svg" xmlns:xlink="http://www.w3.org/1999/xlink" x="0px" y="0px"
	 width="360px" height="360px" viewBox="0 0 360 360" enable-background="new 0 0 360 360" xml:space="preserve">
<g>
	<g>
		<path fill="#666666" d="M317,358c-1.335,0-2.591-0.521-3.535-1.465L296.93,340H66v-30H36V0h238v92.93l30,30v210l16.535,16.535
			c1.949,1.949,1.949,5.121,0,7.07C319.591,357.479,318.335,358,317,358z M76,330h210.93l-47.441-47.441l-0.702,0.594
			c-12.622,10.661-28.628,16.533-45.068,16.533c-38.581,0-69.968-31.388-69.968-69.968s31.387-69.968,69.968-69.968
			c38.58,0,69.968,31.388,69.968,69.968c0,16.44-5.872,32.446-16.533,45.068l-0.594,0.702L294,322.93V130h-90V40H76V330z M46,300h20
			V30h145.07L264,82.93V10H46V300z M193.718,169.75c-33.066,0-59.968,26.901-59.968,59.968s26.901,59.968,59.968,59.968
			s59.968-26.901,59.968-59.968S226.784,169.75,193.718,169.75z M214,120h72.93L214,47.07V120z"/>
		<path fill="#FFFFFF" d="M273,1v91.516v0.829l0.586,0.585l27.018,27.019l2.396,2.396v209.171v0.828l0.586,0.586l16.242,16.242
			c1.56,1.56,1.56,4.097,0,5.656C319.072,356.584,318.067,357,317,357s-2.072-0.416-2.828-1.172l-16.242-16.242L297.344,339h-0.828
			H67v-28v-2h-2H37V1H273 M45,301h2h18h2v-2V31h143.656l2.396,2.396l48.534,48.534L265,85.345v-4.829V11V9h-2H47h-2v2v288V301
			 M75,331h2h207.516h4.828l-3.414-3.414l-45.084-45.084l-1.3-1.301l-1.405,1.187c-12.442,10.51-28.219,16.298-44.423,16.298
			c-38.029,0-68.968-30.938-68.968-68.968s30.939-68.968,68.968-68.968c38.029,0,68.968,30.938,68.968,68.968
			c0,16.204-5.788,31.98-16.298,44.423l-1.187,1.405l1.301,1.3l45.084,45.084l3.414,3.414v-4.828V131v-2h-2h-88V41v-2h-2H77h-2v2
			v270v18V331 M213,121h2h69.516h4.828l-3.414-3.414l-9.516-9.516l-60-60L213,44.655v4.829V119V121 M193.718,290.686
			c33.618,0,60.968-27.35,60.968-60.968s-27.35-60.968-60.968-60.968c-33.618,0-60.968,27.35-60.968,60.968
			S160.1,290.686,193.718,290.686 M275-1H35v312h30v30h231.516l16.242,16.242c1.17,1.17,2.706,1.758,4.242,1.758
			s3.072-0.588,4.242-1.758c2.346-2.346,2.346-6.139,0-8.484L305,332.516v-210l-2.982-2.982L275,92.516V-1L275-1z M47,299V11h216
			v69.516l-48.534-48.534L211.484,29H65v270H47L47,299z M77,329v-18V41h126v90h90v189.516l-45.084-45.084
			c10.439-12.359,16.77-28.302,16.77-45.714c0-39.132-31.836-70.968-70.968-70.968s-70.968,31.836-70.968,70.968
			s31.836,70.968,70.968,70.968c17.412,0,33.354-6.33,45.714-16.77L284.516,329H77L77,329z M215,119V49.484l60,60l9.516,9.516H215
			L215,119z M193.718,288.686c-32.514,0-58.968-26.453-58.968-58.968c0-32.514,26.454-58.968,58.968-58.968
			c32.515,0,58.968,26.454,58.968,58.968C252.686,262.232,226.232,288.686,193.718,288.686L193.718,288.686z"/>
	</g>
	<path fill="#EF4123" d="M158.75,215h36c3.318,0,6-2.682,6-6s-2.682-6-6-6h-36c-3.318,0-6,2.682-6,6S155.432,215,158.75,215z"/>
	<path fill="#EF4123" d="M230.75,239h-72c-3.318,0-6,2.682-6,6s2.682,6,6,6h72c3.318,0,6-2.682,6-6S234.068,239,230.75,239z"/>
</g>
</svg>
