<svg id="Layer_1" data-name="Layer 1" xmlns="http://www.w3.org/2000/svg" viewBox="0 0 360 360"><defs><style>.cls-1{fill:#ef4323;}.cls-2{fill:#666;}.cls-3{fill:none;}</style></defs><path class="cls-1" d="M283.34,244.28a4.39,4.39,0,0,0-1.07-.2,4.52,4.52,0,0,0-4.58,3.16l-17,50.87a4.51,4.51,0,0,0,2.72,5.56,2.78,2.78,0,0,0,1.42.42,4.27,4.27,0,0,0,4.51-3.34l16.95-50.81A4.53,4.53,0,0,0,283.34,244.28Z"/><path class="cls-1" d="M293.84,273.86c-7.12-.44-13.49,4.92-13.91,11.69l-.42,6.89c-.43,6.9,5.12,12.86,12.37,13.31s13.49-4.8,13.91-11.69l.43-6.89C306.64,280.28,301.09,274.31,293.84,273.86Zm2.88,19.86c-.11,1.9-2,3.33-4.29,3.19s-4-1.8-3.88-3.69l.42-6.9c.12-1.89,2-3.32,4.3-3.19s4,1.8,3.88,3.7Z"/><path class="cls-1" d="M267.79,262.54l.43-6.9c.42-6.89-5.13-12.86-12.38-13.3s-13.5,4.91-13.91,11.69l-.43,6.89c-.42,6.89,5.13,12.86,12.38,13.31S267.37,269.43,267.79,262.54Zm-9.07-.35c-.12,1.9-2,3.33-4.3,3.19s-4-1.79-3.87-3.69l.42-6.89c.12-1.9,2.05-3.33,4.3-3.19s4,1.79,3.88,3.69Z"/><path class="cls-2" d="M217.48,204.25a4.39,4.39,0,0,1-3.2-1.38l-34.64-36.66a4.36,4.36,0,0,1,3.17-7.36h18.61A11.33,11.33,0,0,0,211.47,152H182.72a4.4,4.4,0,0,1-4.4-4.4V145.8a4.4,4.4,0,0,1,4.4-4.4H211.5a11.05,11.05,0,0,0-10.08-6.87h-18.7a4.41,4.41,0,0,1-4.4-4.4v-1.78a4.42,4.42,0,0,1,4.4-4.41h49a4.42,4.42,0,0,1,4.41,4.41v1.78a4.42,4.42,0,0,1-4.41,4.4H219.61a24.92,24.92,0,0,1,2.65,6.87h9.48a4.41,4.41,0,0,1,4.41,4.4v1.78a4.41,4.41,0,0,1-4.41,4.4h-9.45c-2.25,10.07-10.63,17.21-20.59,17.46h-4.56l24.83,26a4.4,4.4,0,0,1,0,6.08l-1.31,1.37A4.43,4.43,0,0,1,217.48,204.25Z"/><path class="cls-2" d="M273.86,338.07a64.5,64.5,0,0,1-51.64-25.6H152.09c-1.47,0-2.94-.07-4.4-.21-8.27,3.16-18.73,4.83-30.25,4.83-.6,0-1.2,0-1.79,0-1.8,12.37-21.15,21-47.16,21-27.41,0-47.3-9.6-47.3-22.82V252.32c0-13.23,19.89-22.83,47.3-22.83l1.65,0V189.38c0-11.8,15.71-20.82,39.16-22.53a101.07,101.07,0,0,1,29.87-53.6,96.62,96.62,0,0,1,25.51-17.08,15,15,0,0,1,7.89-27.76h6L158,39.4a5.46,5.46,0,0,1,2-8l17.84-8.86a5.58,5.58,0,0,1,2.43-.56,5.47,5.47,0,0,1,1.46.2l24.48,6.81,22.19-6.77a5,5,0,0,1,1.56-.24,5.53,5.53,0,0,1,2.63.67l16.25,8.86a5.44,5.44,0,0,1,2.69,3.46,5.29,5.29,0,0,1-.69,4.3L232,68.41h4.12a15,15,0,0,1,15,15,14.86,14.86,0,0,1-7,12.66,97,97,0,0,1,57.24,88.53v29.7a64.93,64.93,0,0,1-27.54,123.74Zm-242-22.82c0,5.5,16.34,12.14,36.62,12.14s36.61-6.64,36.61-12.14v-6.11c-8.76,5.06-22.08,7.95-36.61,7.95s-27.85-2.89-36.62-7.95Zm242-96.07a53.94,53.94,0,1,0,53.94,53.94A54,54,0,0,0,273.86,219.18Zm-118.17,88.1Zm-39.9-.89,1.65,0c20.28,0,36.61-6.64,36.61-12.14v-6.11c-8.77,5.06-22.09,8-36.61,8l-1.65,0ZM31.87,294.27c0,5.5,16.34,12.14,36.62,12.14s36.61-6.64,36.61-12.14v-6.11c-8.76,5.06-22.08,8-36.61,8s-27.85-2.9-36.62-8ZM160,303.64Zm55.53-2.09a64,64,0,0,1-6.58-28.43,64.88,64.88,0,0,1,81.6-62.76v-25.7c0-44.9-35-82.65-79.75-85.94-2.28-.17-4.37-.25-6.37-.25l-.09-.8v.8a84.54,84.54,0,0,0-57.63,22.78,89,89,0,0,0-26.07,45.36c26,.7,44.13,10,44.13,22.77V294.27a13.53,13.53,0,0,1-2.16,7.28Zm-99.7-16.14,1.65,0c20.28,0,36.61-6.64,36.61-12.14v-6.1c-8.76,5.05-22.08,7.95-36.61,7.95l-1.65,0ZM31.87,273.29c0,5.5,16.34,12.14,36.62,12.14s36.61-6.64,36.61-12.14v-6.1c-8.76,5.05-22.08,7.95-36.61,7.95s-27.85-2.9-36.62-7.95Zm83.92-8.86q.81,0,1.65,0c20.28,0,36.61-6.65,36.61-12.14v-6.11c-8.77,5-22.09,7.95-36.61,7.95l-1.65,0Zm-47.3-24.25c-20.28,0-36.62,6.64-36.62,12.14s16.34,12.14,36.62,12.14,36.61-6.65,36.61-12.14S88.77,240.18,68.49,240.18Zm43.82,3.14c1.9.11,3.53.16,5.13.16,20.28,0,36.61-6.64,36.61-12.14v-6.11c-8.77,5.06-22.09,8-36.61,8s-27.85-2.89-36.62-8v5C95.47,232,106.93,236.74,112.31,243.32Zm-31.49-33c0,5.5,16.33,12.14,36.62,12.14s36.61-6.64,36.61-12.14v-6.11c-8.77,5.06-22.09,8-36.61,8s-27.85-2.9-36.62-8Zm36.62-33.12c-20.29,0-36.62,6.65-36.62,12.14s16.33,12.14,36.62,12.14,36.61-6.64,36.61-12.14S137.72,177.24,117.44,177.24ZM172.6,79.36a4.1,4.1,0,1,0,0,8.19h63.55a4.1,4.1,0,1,0,0-8.19Zm46.43-11,19.46-30.18-9.08-4.93-21.49,6.56a6,6,0,0,1-1.62.23,4.89,4.89,0,0,1-1.45-.2l-24-6.66-10.26,5.08,21.32,30.1Z"/><rect class="cls-3" width="360" height="360"/></svg>