<?xml version="1.0" encoding="utf-8"?>
<!-- Generator: Adobe Illustrator 16.0.0, SVG Export Plug-In . SVG Version: 6.00 Build 0)  -->
<!DOCTYPE svg PUBLIC "-//W3C//DTD SVG 1.1//EN" "http://www.w3.org/Graphics/SVG/1.1/DTD/svg11.dtd">
<svg version="1.1" id="Layer_1" xmlns="http://www.w3.org/2000/svg" xmlns:xlink="http://www.w3.org/1999/xlink" x="0px" y="0px"
	 width="360px" height="360px" viewBox="0 0 360 360" enable-background="new 0 0 360 360" xml:space="preserve">
<g>
	<polygon fill="#EF4123" points="165.854,185.888 197.702,185.888 191.067,211.543 197.702,311.954 181.778,326.552 
		165.854,313.281 172.489,213.755 	"/>
	<g>
		<path fill="#666666" stroke="#FFFFFF" stroke-width="3" stroke-miterlimit="10" d="M10.637,243.417v-62.82
			c0-8.838,6.21-16.482,14.57-18.154l16.959-4.777l9.793-2.866c1.195-0.239,2.15-1.434,2.15-2.628v-11.465l-0.478-0.479
			c-5.017-3.821-8.122-9.793-8.838-16.003c-0.239-2.15-0.239-3.822-0.478-4.777h-1.911c-1.911,0-3.583-1.434-3.822-3.106
			l-1.672-10.032c-0.478-2.867,1.911-5.494,4.778-5.494l0.478-18.393c0-11.227,9.315-20.543,20.781-20.543h13.376
			c11.465,0,20.781,9.077,20.781,20.543l0.478,18.393c2.866,0,5.255,2.627,4.777,5.494l-1.433,9.554
			c-0.239,1.911-1.912,3.106-3.822,3.106h-1.911c-0.238,0.955-0.238,2.866-0.478,4.776c-0.478,6.211-3.822,12.183-8.838,16.004
			l-0.717,0.478v11.466c0,1.433,0.956,2.389,2.15,2.627l7.644,2.15c4.299-2.627,8.837-4.777,13.854-5.732h0.238l-14.57-4.061v-2.15
			c5.016-5.016,8.121-11.227,9.077-17.915c3.344-1.911,5.972-5.494,6.449-9.315l1.433-9.555c0.717-4.061-0.478-8.36-3.344-11.465
			c-0.478-0.478-0.956-1.194-1.433-1.433l0.239-12.421c0-16.482-13.616-29.858-30.336-29.858H63.187
			c-16.72,0-30.335,13.375-30.335,29.858l-0.239,12.421c-0.478,0.478-0.955,0.956-1.671,1.671
			c-2.627,3.106-3.822,7.405-3.344,11.466l1.433,9.555c0.717,4.061,3.105,7.405,6.449,9.554c0.956,6.927,4.3,13.137,9.077,17.915
			v1.911l-5.016,1.433l-16.721,4.777c-12.66,2.867-21.736,14.332-21.736,27.47v62.82v5.495l4.777,2.866l68.315,40.368v-10.988
			L10.637,243.417z"/>
		<path fill="#666666" stroke="#FFFFFF" stroke-width="3" stroke-miterlimit="10" d="M337.402,153.366l-21.736-6.21v-2.15
			c4.776-4.778,8.12-11.227,9.076-17.915c3.344-1.911,5.732-5.255,6.449-9.554l1.433-9.555c0.717-4.061-0.477-8.36-3.343-11.466
			c-0.479-0.478-0.957-1.194-1.434-1.671l-0.238-12.421c0-16.482-13.616-29.858-30.336-29.858h-13.377
			c-16.722,0-30.336,13.375-30.336,29.858l-0.238,12.421c-0.478,0.478-0.957,0.956-1.434,1.433
			c-2.628,3.105-3.821,7.404-3.344,11.465l1.434,9.555c0.715,4.061,3.105,7.644,6.448,9.555c0.957,6.688,4.3,13.137,9.077,17.915
			v2.149l-5.016,1.433l-9.076,2.627l0,0c5.015,1.194,9.792,3.106,14.092,5.972l7.166-2.149c1.195-0.239,2.148-1.434,2.148-2.628
			v-11.465l-0.715-0.479c-5.017-3.821-8.361-9.793-8.839-16.003c-0.238-2.15-0.477-4.061-0.477-4.777h-1.912
			c-1.911,0-3.582-1.434-3.821-3.106l-1.433-9.554c-0.479-2.867,1.91-5.494,4.776-5.494l0.478-18.393
			c0-11.227,9.315-20.304,20.781-20.304h13.376c11.467,0,20.781,9.077,20.781,20.304l0.479,18.393c2.866,0,5.255,2.627,4.778,5.494
			l-1.434,9.554c-0.24,1.912-1.911,3.106-3.823,3.106h-1.91c-0.238,0.955-0.238,2.866-0.478,4.777
			c-0.479,6.21-3.822,12.182-8.838,16.003l-0.718,0.479v11.465c0,1.195,0.957,2.389,2.15,2.628l26.753,7.643
			c8.6,1.672,14.571,9.316,14.571,18.154v62.82l-63.299,37.263v10.988l68.075-40.128l4.777-2.867v-5.494v-62.344
			C359.377,167.698,350.301,156.232,337.402,153.366z"/>
		<path fill="#666666" stroke="#FFFFFF" stroke-width="3" stroke-miterlimit="10" d="M150.133,60.926
			c6.688,0,12.421-3.583,15.526-9.555l0.239-0.478c5.972,6.21,14.332,9.793,23.169,9.793h26.035v-8.599v-0.955h-26.035
			c-8.121,0-15.765-4.539-19.586-11.466l-4.299-7.882l-7.882,15.048c-1.433,2.627-4.061,4.3-7.167,4.3h-4.538l-0.238,9.793l0,0
			H150.133z"/>
		<path fill="#666666" stroke="#FFFFFF" stroke-width="3" stroke-miterlimit="10" d="M249.979,158.143l-36.548-10.51v-2.866v-6.21
			c8.123-7.405,13.139-17.438,14.095-28.425c5.016-1.911,8.599-6.45,9.554-11.943l2.39-14.57c0.715-4.777-0.718-9.794-3.823-13.376
			c-0.955-1.194-2.148-2.15-3.344-3.105l-0.478-21.259c0-22.214-18.394-40.368-41.085-40.368h-20.302
			c-22.692,0-41.085,18.153-41.085,40.368l-0.478,21.259c-1.194,0.955-2.388,1.911-3.344,3.105
			c-3.105,3.583-4.538,8.599-3.821,13.376l2.389,14.57c0.955,5.494,4.539,9.793,9.554,11.704
			c0.956,10.988,6.211,21.021,14.093,28.425v9.077l-11.227,3.105l-25.32,7.166c-17.198,3.583-29.38,19.109-29.38,36.786v95.066
			v5.495l4.777,2.866l90.768,53.745l5.017,2.866l4.776-2.866l88.38-53.745l4.539-2.866v-5.495v-94.589
			C279.358,177.252,266.937,161.965,249.979,158.143z M269.804,289.996l-88.379,53.744l-90.769-53.744v-95.067
			c0-13.376,9.315-24.842,22.214-27.47l25.797-7.404l14.809-4.3c1.911-0.478,3.344-2.15,3.344-4.061v-5.972l0.717,0.478
			c5.016,3.344,10.749,5.255,16.72,5.255h4.777v-9.554h-4.777c-4.061,0-7.882-1.194-11.227-3.583l-6.21-4.299l0,0l-0.955-0.716
			c-7.644-5.972-12.421-14.81-13.376-24.364c-0.239-3.105-0.478-5.972-0.717-7.405h-3.105c-2.867,0-5.255-2.15-5.733-4.777
			l-2.389-14.571c-0.717-4.299,2.627-8.36,7.166-8.36l0.716-27.947c0-17.198,14.093-31.053,31.53-31.053h20.304
			c17.437,0,31.529,13.855,31.529,31.053l0.716,27.947c4.538,0,7.883,3.822,7.166,8.36l-2.388,14.571
			c-0.479,2.867-2.867,4.777-5.732,4.777h-3.106c-0.238,1.433-0.478,4.299-0.717,7.405c-0.715,9.554-5.732,18.393-13.376,24.364
			l-0.955,0.716v10.749v6.927v17.915h9.555v-12.183l34.158,9.794c12.897,2.627,22.214,14.092,22.214,27.469v95.307H269.804z"/>
		<path fill="#666666" stroke="#FFFFFF" stroke-width="3" stroke-miterlimit="10" d="M195.994,209.978l6.45-22.692
			c0.477-1.433,0-3.105-0.717-4.3c-0.955-1.194-2.389-1.911-3.821-1.911h-32.008c-1.433,0-2.867,0.717-3.822,1.911
			c-0.955,1.194-1.194,2.627-0.717,4.3l6.45,22.692l-8.838,101.755c-0.239,1.672,0.478,3.105,1.672,4.062l17.676,14.57
			c0.955,0.717,1.911,1.193,3.105,1.193c1.193,0,2.148-0.477,3.104-1.193l17.677-14.57c1.193-0.956,1.91-2.628,1.672-4.062
			L195.994,209.978z M191.456,190.867l-3.821,13.854h-11.227l-4.061-13.854H191.456z M181.663,320.571l-12.899-10.511l8.122-95.783
			h9.792l7.645,95.783L181.663,320.571z"/>
	</g>
</g>
</svg>
