<?xml version="1.0" encoding="utf-8"?>
<!-- Generator: Adobe Illustrator 16.0.0, SVG Export Plug-In . SVG Version: 6.00 Build 0)  -->
<!DOCTYPE svg PUBLIC "-//W3C//DTD SVG 1.1//EN" "http://www.w3.org/Graphics/SVG/1.1/DTD/svg11.dtd">
<svg version="1.1" id="Layer_1" xmlns="http://www.w3.org/2000/svg" xmlns:xlink="http://www.w3.org/1999/xlink" x="0px" y="0px"
	 width="72px" height="72px" viewBox="0 0 72 72" enable-background="new 0 0 72 72" xml:space="preserve">
<g>
	<path fill="#666766" stroke="#FFFFFF" stroke-miterlimit="10" d="M41.894,50.266c-0.454-0.343-0.91-0.683-1.593-1.023l-1.819-1.025
		c-0.457-0.227-1.024-0.567-1.594-0.796l-0.569-0.342c-0.569-0.228-1.138-0.568-1.593-0.795c-0.796-0.343-1.479-0.569-2.162-0.798
		l-1.024-0.341l-0.568,0.569c-1.593,1.593-5.803,5.46-7.737,7.168c-2.048-1.935-6.827-6.372-7.737-7.168l-0.455-0.569l-0.796,0.228
		c0,0-0.797,0.227-1.138,0.455c-0.341,0.113-0.683,0.229-1.138,0.456c-0.568,0.227-1.138,0.567-1.593,0.795l-0.91,0.342
		c-0.228,0.115-0.342,0.115-0.569,0.229l-1.935,1.023c-0.91,0.455-1.592,1.023-2.275,1.479c-1.479,1.023-2.959,2.275-3.755,3.981
		c-0.683,1.479-0.683,3.187-0.569,4.666v0.568c0,0.228,0,2.504,0,4.21c0,1.934,1.593,3.527,3.527,3.527h38.799
		c1.934,0,3.525-1.594,3.525-3.527c0-1.819,0-4.096,0-4.323v-0.455c0-1.479,0.114-3.187-0.567-4.779
		C44.852,52.427,43.259,51.175,41.894,50.266z M43.373,58.799v0.455c0,0.113,0,2.504,0,4.323c0,0.341-0.341,0.683-0.682,0.683H3.892
		c-0.455,0-0.682-0.342-0.682-0.683c0-4.21,0-4.323,0-4.323v-0.569c0-1.25-0.114-2.502,0.34-3.413
		c0.456-1.139,1.707-2.047,2.845-2.845c0.569-0.454,1.252-0.91,2.048-1.252l1.935-1.023c0.114-0.113,0.341-0.113,0.455-0.229
		l0.796-0.454c0.455-0.227,1.024-0.454,1.479-0.683c0.341-0.113,0.683-0.227,0.91-0.342c0.114,0,0.114,0,0.228-0.113
		c2.047,1.935,7.736,7.281,8.078,7.51l0.911,0.909l0.91-0.909c0,0,5.461-5.12,8.078-7.51c0.341,0.113,0.796,0.342,1.252,0.455
		c0.568,0.229,1.024,0.456,1.593,0.797l0.569,0.34c0.568,0.229,1.024,0.57,1.479,0.798l1.707,1.024
		c0.454,0.341,0.91,0.568,1.365,0.909c1.139,0.797,2.389,1.82,2.845,2.844C43.486,56.296,43.486,57.548,43.373,58.799z"/>
	<path fill="#666766" stroke="#FFFFFF" stroke-miterlimit="10" d="M11.288,29.103c0,0.342,0.114,0.683,0.114,1.138
		c0,0.114,0,0.341,0.113,0.455c0.228,1.593,1.024,2.958,2.275,3.641c0.797,2.845,2.276,5.12,4.438,6.599
		c0.341,0.228,0.568,0.341,0.91,0.569c0.456,0.228,1.024,0.455,1.479,0.683c0.456,0.228,0.911,0.341,1.366,0.454
		c0.341,0.114,0.797,0.114,1.138,0.114c0.114,0,0.114,0,0.227,0c0.341,0,0.796,0,1.138-0.114c0.456-0.113,0.911-0.227,1.252-0.341
		h0.113c0.569-0.227,1.024-0.454,1.593-0.683c0.341-0.229,0.569-0.342,0.91-0.568c1.251-0.797,2.276-1.934,3.072-3.186
		c0.342-0.569,0.683-1.252,1.024-1.935c0.113-0.229,0.227-0.569,0.227-0.796s0.114-0.454,0.228-0.569
		c0.114-0.114,0.341-0.342,0.569-0.456c0.114-0.114,0.227-0.228,0.341-0.341c1.023-0.911,1.365-2.162,1.365-2.958
		c0-0.114,0-0.341,0.114-0.456c0-0.341,0.114-0.683,0.114-1.138c0-0.341,0-0.568,0-0.796l-1.366-0.113h-1.479v0.113v0.114
		c0,0.228,0,0.341,0,0.569c0,0.228-0.113,0.569-0.113,0.796c0,0.228-0.114,0.341-0.114,0.569c-0.114,0.796-0.227,1.024-0.455,1.251
		c-0.113,0.114-0.227,0.228-0.341,0.228c-0.227,0.228-0.568,0.568-0.91,0.909c-0.456,0.57-0.569,1.138-0.683,1.594
		c0,0.114-0.114,0.342-0.114,0.456c-0.228,0.568-0.455,1.137-0.796,1.479c-0.569,0.91-1.366,1.707-2.162,2.275
		c-0.228,0.114-0.455,0.343-0.683,0.343c-0.341,0.113-0.683,0.34-1.137,0.454l-0.342,0.227c-0.228,0.114-0.455,0.228-0.796,0.228
		c-0.228,0-0.456,0.115-0.796,0.115c-0.228,0-0.456,0-0.683,0c-0.228,0-0.456-0.115-0.797-0.229l-0.114-0.114
		c-0.455-0.113-0.796-0.341-1.138-0.454c-0.228-0.113-0.455-0.227-0.683-0.455c-1.707-1.138-2.731-2.845-3.414-5.12
		c-0.227-0.797-0.683-1.138-0.91-1.479l-0.228-0.114c-0.683-0.341-0.91-1.137-0.91-1.592c0-0.228,0-0.341-0.114-0.569
		c0-0.228-0.114-0.568-0.114-0.796c0-0.228,0-0.341,0-0.569V28.42v-0.113c0,0,0.114,0,0.228,0l0.455-0.114l0.227-0.114
		c0.569-0.341,0.797-0.91,0.91-1.479c0-0.683-0.113-1.365-0.228-1.935c-0.114-0.341-0.114-0.568-0.114-0.91
		c0-0.796-0.113-1.82-0.113-2.844c0-0.683,0.113-1.252,0.341-1.707c0,0,0.113-0.114,0.227-0.114c0.456-0.228,0.911-0.455,1.365-0.91
		c0.455-0.455,0.683-0.796,0.911-1.024l0.114-0.228c0.228-0.228,0.341-0.456,0.569-0.569c0,0,0.114-0.114,0.227-0.114
		c0.911-0.456,2.048-0.456,3.072-0.569c0.341,0,0.683,0,1.024,0c1.592,0,3.186,0.341,4.551,0.796
		c0.228,0.114,0.569,0.228,0.796,0.341c1.934,0.911,3.072,2.618,2.958,4.779c0,0.796-0.114,1.592-0.341,2.389
		c-0.114,0.456-0.114,0.911-0.227,1.365v0.456c-0.114,0.455-0.228,0.91,0.113,1.479c0.228,0.455,0.683,1.024,1.707,1.024h-0.114
		l1.252,0.113l1.365,0.114l0,0c0-1.024-0.456-2.162-1.479-2.73V25.69c0-0.342,0.114-0.683,0.114-0.91
		c0.228-1.024,0.341-1.935,0.455-2.958c0.114-3.299-1.592-6.144-4.665-7.509c-0.341-0.113-0.683-0.227-0.91-0.341
		c-1.707-0.683-3.642-1.024-5.575-1.024c-0.455,0-0.796,0-1.252,0c-1.138,0.114-2.73,0.114-4.096,0.797
		c-0.114,0.114-0.341,0.114-0.455,0.227c-0.569,0.341-1.024,0.797-1.479,1.479l-0.114,0.114c-0.113,0.227-0.113,0.227-0.341,0.341
		c-0.341,0.227-0.455,0.341-0.796,0.455c-0.683,0.341-1.138,0.796-1.479,1.365c-0.456,0.796-0.683,1.82-0.797,2.958
		c0,1.138,0,2.276,0.114,3.072c0,0.455,0.114,0.796,0.228,1.251c0,0.114,0,0.228,0.114,0.341c-1.137,0.456-1.707,1.707-1.593,2.731
		l0,0C11.288,28.534,11.288,28.875,11.288,29.103z"/>
	<path fill="#EF4223" stroke="#FFFFFF" stroke-miterlimit="10" d="M62.829,19.66h-5.688v-5.689c0-0.796-0.685-1.479-1.479-1.479
		c-0.797,0-1.365,0.683-1.365,1.479v5.689h-5.688c-0.798,0-1.479,0.683-1.479,1.479c0,0.797,0.682,1.479,1.479,1.479h5.688v5.689
		c0,0.796,0.682,1.479,1.479,1.479c0.796,0,1.479-0.683,1.479-1.479v-5.689h5.688c0.797,0,1.479-0.683,1.479-1.479
		C64.422,20.342,63.624,19.66,62.829,19.66z"/>
	<path fill="#666766" stroke="#FFFFFF" stroke-miterlimit="10" d="M61.577,6.007L61.577,6.007
		c-5.348-2.048-11.15-1.252-15.701,2.275c-2.39,1.821-4.096,4.21-5.234,6.941c-1.479,3.754-1.479,7.851-0.113,11.604h-0.113
		l-2.391,1.48c-1.022,0.683-1.137,1.479-1.137,2.047c0.115,1.024,0.796,1.707,2.163,2.275h0.113c1.252,0.456,2.39,0.797,3.413,0.911
		h0.229c0.228,0,0.454,0,0.682,0.113c0.569,0,1.252,0,1.821,0c1.25,1.025,2.73,1.82,4.323,2.504
		c1.935,0.795,3.867,1.137,5.917,1.137c3.525,0,6.939-1.137,9.784-3.3c2.389-1.82,4.096-4.209,5.232-6.94
		c1.593-3.982,1.479-8.419-0.227-12.402C68.745,10.671,65.674,7.599,61.577,6.007z M68.176,25.917
		c-0.909,2.275-2.389,4.21-4.323,5.689c-3.754,2.844-8.533,3.527-12.97,1.821c-1.366-0.57-2.503-1.252-3.641-2.162l-0.685-0.569
		h-0.908h-0.229c-0.569,0-1.023,0-1.593,0c-0.229,0-0.342,0-0.455,0h-0.341c-0.798-0.114-1.593-0.341-2.504-0.568l1.365-0.796
		c0.228-0.114,0.456-0.228,0.569-0.341l1.593-1.138l-0.683-1.82c-1.252-3.186-1.252-6.599,0-9.785
		c0.911-2.276,2.39-4.21,4.323-5.689c3.755-2.844,8.646-3.527,12.97-1.82c3.3,1.251,5.917,3.754,7.396,7.054
		C69.313,18.977,69.428,22.618,68.176,25.917z"/>
</g>
</svg>
