<?xml version="1.0" encoding="utf-8"?>
<!-- Generator: Adobe Illustrator 16.0.0, SVG Export Plug-In . SVG Version: 6.00 Build 0)  -->
<!DOCTYPE svg PUBLIC "-//W3C//DTD SVG 1.1//EN" "http://www.w3.org/Graphics/SVG/1.1/DTD/svg11.dtd">
<svg version="1.1" xmlns="http://www.w3.org/2000/svg" xmlns:xlink="http://www.w3.org/1999/xlink" x="0px" y="0px" width="72px"
	 height="72px" viewBox="0 0 72 72" enable-background="new 0 0 72 72" xml:space="preserve">
<g id="Layer_2">
	<path fill="#666766" stroke="#FFFFFF" stroke-width="1.5" stroke-miterlimit="10" d="M68.149,40.687
		c0.155,1.827-0.501,3.628-1.797,4.924L49.35,62.613c-2.452,2.434-5.771,3.789-9.227,3.771H19.128l-5.315,5.301
		c-0.723,0.722-1.895,0.722-2.617,0c-0.723-0.723-0.723-1.896,0-2.617l5.84-5.841c0.347-0.346,0.818-0.54,1.309-0.539h21.778
		c2.497,0.01,4.894-0.98,6.654-2.75L63.78,42.935c0.953-1.015,0.9-2.611-0.115-3.563c-0.97-0.909-2.479-0.909-3.449,0L46.799,52.929
		l-0.044,0.038c-1.155,1.145-2.714,1.79-4.339,1.796H29.44c-1.02,0-1.848-0.827-1.848-1.849c0-1.021,0.828-1.848,1.848-1.848h12.983
		c1.169-0.005,2.181-0.817,2.438-1.959c0.299-1.348-0.553-2.681-1.9-2.979c-0.178-0.04-0.358-0.06-0.538-0.06H20.03
		c-2.072-0.005-4.06,0.817-5.522,2.285l-3.268,3.26c-0.665,0.774-1.832,0.863-2.605,0.198c-0.774-0.665-0.863-1.833-0.198-2.606
		c0.062-0.072,0.13-0.139,0.202-0.201l3.267-3.261c2.152-2.164,5.08-3.377,8.132-3.37h22.387c2.506-0.007,4.768,1.507,5.714,3.829
		l9.417-9.419c2.428-2.427,6.365-2.427,8.793,0C67.393,37.83,68.032,39.214,68.149,40.687z M53.364,16.291
		c-0.455-1.161-1.37-2.081-2.528-2.543l-4.754-1.877l-0.916-5.027c-0.444-2.442-2.785-4.062-5.227-3.619
		c-0.108,0.02-0.213,0.043-0.318,0.07L34.66,4.544l-3.697-3.526c-1.795-1.713-4.641-1.647-6.354,0.148
		c-0.073,0.077-0.143,0.155-0.21,0.236l-3.252,3.94l-5.064-0.68c-2.46-0.332-4.724,1.394-5.054,3.854
		c-0.015,0.107-0.025,0.214-0.032,0.322l-0.317,5.101l-4.51,2.424c-2.178,1.19-2.98,3.921-1.79,6.1
		c0.043,0.077,0.087,0.154,0.134,0.229l2.742,4.317l-2.218,4.605c-1.075,2.237-0.133,4.922,2.104,5.999
		c0.098,0.047,0.197,0.092,0.298,0.131l5.707,2.254c0.95,0.376,2.023-0.089,2.399-1.037c0.375-0.95-0.089-2.025-1.039-2.4l0,0
		l-5.707-2.255c-0.41-0.161-0.613-0.625-0.451-1.035c0.007-0.017,0.014-0.035,0.022-0.051l2.654-5.53
		c0.276-0.574,0.237-1.25-0.104-1.79l-3.29-5.174c-0.236-0.372-0.126-0.865,0.246-1.102c0.017-0.01,0.033-0.02,0.05-0.029
		l5.404-2.913c0.553-0.296,0.917-0.853,0.968-1.478l0.385-6.122c0.012-0.221,0.116-0.428,0.288-0.569
		c0.169-0.145,0.393-0.209,0.614-0.178l6.083,0.82c0.632,0.089,1.265-0.157,1.671-0.65l3.911-4.73
		c0.281-0.34,0.784-0.388,1.124-0.106c0.015,0.012,0.03,0.025,0.044,0.039l4.436,4.236c0.462,0.441,1.119,0.612,1.737,0.451
		l5.915-1.53c0.427-0.109,0.862,0.148,0.972,0.575c0.004,0.018,0.009,0.036,0.012,0.053l1.152,6.025
		c0.114,0.629,0.544,1.155,1.14,1.39l5.707,2.255c0.403,0.176,0.589,0.647,0.412,1.051c-0.007,0.015-0.014,0.029-0.021,0.043
		l-2.653,5.53c-0.276,0.574-0.238,1.25,0.103,1.789l3.289,5.175c0.237,0.372,0.128,0.865-0.245,1.102
		c-0.016,0.011-0.033,0.02-0.051,0.03l-5.403,2.913c-0.913,0.456-1.282,1.567-0.825,2.479c0.456,0.913,1.566,1.283,2.479,0.827
		c0.034-0.018,0.066-0.035,0.1-0.054l5.403-2.913c2.183-1.182,2.994-3.91,1.812-6.093c-0.049-0.09-0.1-0.179-0.155-0.265
		l-2.742-4.317l2.218-4.605c0.54-1.125,0.591-2.422,0.14-3.585L53.364,16.291z"/>
	<g>
		<path fill="#EF4523" d="M28.455,26.131H22.33l10.268,10.868l1.142-1.2l-7.687-8.046h2.462c2.462-0.061,4.503-1.981,4.862-4.502
			h3.483v-1.621h-3.483c-0.18-1.081-0.6-2.102-1.32-2.882h4.803v-1.621H23.05v1.621h5.403c1.621,0,3.002,1.202,3.362,2.882H23.05
			v1.621h8.766C31.456,24.871,30.075,26.131,28.455,26.131z"/>
	</g>
</g>
<g id="Layer_1">
</g>
</svg>
